<svg xmlns="http://www.w3.org/2000/svg" viewBox="0 0 180 54"><defs><linearGradient id="g" x1="0" y1="0" x2="1" y2="1"><stop stop-color="#58D6FF"/><stop offset=".55" stop-color="#287BFF"/><stop offset="1" stop-color="#8B5CF6"/></linearGradient></defs><rect x="1" y="1" width="52" height="52" rx="15" fill="#070B18" stroke="#26345D"/><path d="M11 11h15c7 0 11 3 11 8 0 3-2 6-5 7 4 1 7 4 7 8 0 7-5 10-13 10H11V11zm9 7v6h5c3 0 4-1 4-3s-1-3-4-3h-5zm0 13v7h6c3 0 5-1 5-4 0-2-2-3-5-3h-6z" fill="url(#g)"/><path d="M34 11h9l-6 15-5-10 2-5zm3 21 6 12h-9l-4-10 7-2z" fill="#fff"/><text x="66" y="25" fill="#fff" font-family="Arial" font-size="20" font-weight="800">BAXROMJONOV</text><text x="66" y="43" fill="#7C91BE" font-family="Arial" font-size="14" font-weight="700" letter-spacing="4">ASADBEK</text></svg>