<svg xmlns="http://www.w3.org/2000/svg" viewBox="0 0 64 64"><defs><linearGradient id="g" x1="0" y1="0" x2="1" y2="1"><stop stop-color="#62e7ff"/><stop offset=".5" stop-color="#287bff"/><stop offset="1" stop-color="#8b5cf6"/></linearGradient></defs><rect width="64" height="64" rx="16" fill="#050816"/><path d="M14 15h17c8 0 13 4 13 10 0 4-2 7-6 8 5 1 8 5 8 10 0 8-6 12-15 12H14V15zm10 8v7h6c3 0 5-1 5-4 0-2-2-3-5-3h-6zm0 15v9h7c4 0 6-2 6-5s-2-4-6-4h-7z" fill="url(#g)"/><path d="M39 15h10l-7 18-5-11 2-7zM42 39l6 16h-9l-5-13 8-3z" fill="#fff" opacity=".92"/></svg>